# xmcd
#
# Track frame offsets: 
#        150
#        11117
#        23375
#        36100
#        45850
#        58575
#        71170
#        82735
#        95625
#        106867
#        119465
#        129472
#        140245
#        151512
#        163650
#        176342
#        187582
#        200260
#        210842
#        222175
#        235572
#        244030
#        253702
#        263907
#        273597
#        284115
#        297340
#        311997
#        322177
#
# Disc length: 4421 seconds
#
# Revision: 0
# Processed by: cddbd v1.4PL0 Copyright (c) Steve Scherf et al.
# Submitted via: ExactAudioCopy v0.90b4
#
DISCID=9a11431d
DTITLE=Roy Orbison - Star Profile
DYEAR=2000
DGENRE=Blues
TTITLE0=Only The Lonely 
TTITLE1=Leah
TTITLE2=In Dreams
TTITLE3=Uptown
TTITLE4=It's Over
TTITLE5=Crying
TTITLE6=Dream baby
TTITLE7=Blue Angel
TTITLE8=Working For The Man
TTITLE9=Candy man
TTITLE10=Running Scared 
TTITLE11=Falling
TTITLE12=Love Huts
TTITLE13=Shahdaroba 
TTITLE14=I'm Hurtin' 
TTITLE15=Mean Woman Blues 
TTITLE16=Pretty Paper 
TTITLE17=The Crowd
TTITLE18=Blue Bayou 
TTITLE19=Oh Pretty Woman 
TTITLE20=Big Hearted Me
TTITLE21=Blue Blue Day
TTITLE22=Ooby Dooby
TTITLE23=What About Me
TTITLE24=Lonesome Number One
TTITLE25=Southern Man
TTITLE26=Old Love Song
TTITLE27=Devil Doll
TTITLE28=You're My Baby
EXTD=
EXTT0=
EXTT1=
EXTT2=
EXTT3=
EXTT4=
EXTT5=
EXTT6=
EXTT7=
EXTT8=
EXTT9=
EXTT10=
EXTT11=
EXTT12=
EXTT13=
EXTT14=
EXTT15=
EXTT16=
EXTT17=
EXTT18=
EXTT19=
EXTT20=
EXTT21=
EXTT22=
EXTT23=
EXTT24=
EXTT25=
EXTT26=
EXTT27=
EXTT28=
PLAYORDER=
